:SAMPLES-PER-SECOND 30
:FULLY-SPECIFIED
:DEGREES
851
root  33.552 37.5751 1.6867 138.35 88.702 148.519
RightUpLeg  -14.4125 -8.2671 -3.76813
RightLeg  11.5861 -0.500419 0.216322
RightFoot  9.38173 -0.108498 0.873797
RightToes  -5.8209e-011 0 -3.6325e-017
Spine  10.2935 -1.20715 7.96806
Spine1  11.6474 0.394948 -4.20034
HEad  -16.9909 0.925937 -6.24714
LeftShoulder1  -0.313223 4.36456 -30.2894
LeftArm  -14.5644 10.5583 -30.2777
LeftForeArm  92.1031 -77.1283 -119.216
LeftHand  -0.180357 0.248424 4.07778
RightShoulder  -0.406778 -4.68802 27.3601
RightArm  -10.3223 -13.1616 36.1224
RightForeArm  110.942 71.3819 142.802
RightHand  -0.344426 2.89148 -5.05135
LeftUpLeg  22.5369 6.08797 4.16859
LeftLeg  15.6473 -3.63352 -0.122488
LeftFoot  -22.3962 0.147644 0.159213
LeftToes  -8.31281e-010 4.41007e-011 3.74621e-011
852
root  34.9305 37.3631 2.17376 -5.39948 89.4621 5.22583
RightUpLeg  -15.8844 -7.81062 -1.24315
RightLeg  19.0892 0.864306 0.101593
RightFoot  7.00684 0.362043 -1.94859
RightToes  -5.8209e-011 0 -3.6325e-017
Spine  11.3367 -0.581638 9.90668
Spine1  10.5312 1.24913 -3.6156
HEad  -16.1796 1.27116 -6.11525
LeftShoulder1  -0.275374 4.26372 -30.0878
LeftArm  -13.8585 11.8321 -30.2645
LeftForeArm  91.3294 -77.1602 -118.811
LeftHand  -0.193527 0.151029 4.30447
RightShoulder  -0.466122 -4.84925 27.7581
RightArm  -9.70623 -14.1989 35.1074
RightForeArm  110.973 71.2897 143.002
RightHand  -0.344583 3.02467 -4.97947
LeftUpLeg  23.2284 5.38264 6.82248
LeftLeg  20.2131 -3.28466 -1.0669
LeftFoot  -22.3976 -0.232926 -3.8182
LeftToes  -8.31281e-010 4.41007e-011 3.74621e-011
853
root  36.3275 37.2768 2.39974 -79.151 88.4679 -69.0311
RightUpLeg  -16.4164 -8.79568 0.114462
RightLeg  23.6491 1.80886 0.633907
RightFoot  3.48504 0.388839 -2.7766
RightToes  -5.8209e-011 0 -3.6325e-017
Spine  10.0829 -0.962458 12.6332
Spine1  11.0314 1.36857 -3.89254
HEad  -16.0467 1.6227 -5.74175
LeftShoulder1  -0.389422 4.55365 -30.9196
LeftArm  -13.6356 13.6184 -29.8174
LeftForeArm  92.9345 -76.9929 -120.225
LeftHand  -0.151559 0.853241 3.81653
RightShoulder  -0.481826 -4.88757 27.9459
RightArm  -8.63137 -14.0795 34.2705
RightForeArm  109.309 71.8463 141.553
RightHand  -0.345521 3.23246 -4.89324
LeftUpLeg  21.1676 4.71973 8.4975
LeftLeg  27.239 -3.6548 -1.73531
LeftFoot  -19.6178 -0.483675 -8.68409
LeftToes  -8.31281e-010 4.41007e-011 3.74621e-011
854
root  37.5131 37.3051 2.73344 -104.607 88.3996 -95.658
RightUpLeg  -16.8391 -9.50043 0.532879
RightLeg  26.305 1.48323 0.561852
RightFoot  0.20266 0.281907 -2.78024
RightToes  -5.8209e-011 0 -3.6325e-017
Spine  9.00583 -1.37138 12.4803
Spine1  10.9296 0.74456 -2.38585
HEad  -16.4426 1.98864 -4.89318
LeftShoulder1  -0.513884 4.86682 -31.5821
LeftArm  -13.6538 15.1895 -29.3128
LeftForeArm  94.0512 -76.8507 -121.314
LeftHand  -0.150107 0.688834 3.66558
RightShoulder  -0.511548 -4.96519 28.1669
RightArm  -7.85033 -13.8406 33.9527
RightForeArm  109.263 72.2458 140.615
RightHand  -0.287251 3.50122 -3.98768
LeftUpLeg  15.3505 4.70928 9.67997
LeftLeg  37.2895 -3.33293 -2.28878
LeftFoot  -11.5899 -0.00641475 -11.1426
LeftToes  -8.31281e-010 4.41007e-011 3.74621e-011
855
root  38.6374 37.4298 3.05753 -133.434 87.303 -125.742
RightUpLeg  -16.5723 -10.4348 1.33973
RightLeg  27.2908 0.93706 0.289488
RightFoot  -1.87499 0.242484 -3.0702
RightToes  -5.8209e-011 0 -3.6325e-017
Spine  8.05856 -1.5526 13.1774
Spine1  10.278 0.395732 -1.51348
HEad  -17.0203 1.76303 -4.38473
LeftShoulder1  -0.415722 4.59959 -31.7992
LeftArm  -13.3736 15.5856 -29.4657
LeftForeArm  92.3765 -77.1372 -119.235
LeftHand  -0.154199 0.975453 3.97718
RightShoulder  -0.545744 -5.06717 28.1124
RightArm  -7.46976 -14.8671 33.4318
RightForeArm  107.799 71.7967 141.462
RightHand  -0.455233 3.29619 -6.32809
LeftUpLeg  7.66989 4.62125 10.7162
LeftLeg  47.8376 -0.914789 -0.619583
LeftFoot  0.59156 0.691528 -6.85404
LeftToes  -8.31281e-010 4.41007e-011 3.74621e-011
856
root  39.6519 37.5913 3.26394 -149.825 86.0631 -142.747
RightUpLeg  -15.4228 -13.1321 1.39625
RightLeg  27.5693 1.92757 0.846307
RightFoot  -3.5938 0.196822 -3.2715
RightToes  -5.8209e-011 0 -3.6325e-017
Spine  7.62763 -1.84259 14.3904
Spine1  10.2282 0.360951 -1.60951
HEad  -17.5712 1.24106 -3.67848
LeftShoulder1  -0.337182 4.3953 -31.6791
LeftArm  -12.627 14.8786 -29.8762
LeftForeArm  91.6889 -77.3201 -117.925
LeftHand  -0.165424 0.469585 3.88959
RightShoulder  -0.565223 -5.13147 27.9486
RightArm  -8.20896 -16.1873 32.9601
RightForeArm  109.081 71.2989 142.741
RightHand  -0.419915 3.3534 -5.81465
LeftUpLeg  1.05599 4.64248 10.7004
LeftLeg  55.915 0.567524 1.32784
LeftFoot  5.09062 0.258605 -1.81359
LeftToes  -8.31281e-010 4.41007e-011 3.74621e-011
